<mxfile host="Electron" agent="Mozilla/5.0 (Macintosh; Intel Mac OS X 10_15_7) AppleWebKit/537.36 (KHTML, like Gecko) draw.io/24.7.5 Chrome/126.0.6478.183 Electron/31.3.0 Safari/537.36" version="24.7.5">
  <diagram name="第 1 页" id="FOlYxHShmwy1e1oTtc97">
    <mxGraphModel dx="675" dy="481" grid="1" gridSize="10" guides="1" tooltips="1" connect="1" arrows="1" fold="1" page="1" pageScale="1" pageWidth="827" pageHeight="1169" math="0" shadow="0">
      <root>
        <mxCell id="0" />
        <mxCell id="1" parent="0" />
        <mxCell id="Q_ZhAPwViul3IWRuw0_R-4" style="edgeStyle=orthogonalEdgeStyle;rounded=0;orthogonalLoop=1;jettySize=auto;html=1;exitX=1;exitY=0.5;exitDx=0;exitDy=0;entryX=0;entryY=0.5;entryDx=0;entryDy=0;startArrow=classic;startFill=1;" edge="1" parent="1" source="Q_ZhAPwViul3IWRuw0_R-2" target="Q_ZhAPwViul3IWRuw0_R-3">
          <mxGeometry relative="1" as="geometry" />
        </mxCell>
        <mxCell id="Q_ZhAPwViul3IWRuw0_R-2" value="使用者&lt;br&gt;&lt;br&gt;（錢包）" style="rounded=1;whiteSpace=wrap;html=1;fillColor=#f5f5f5;fontColor=#333333;strokeColor=#666666;" vertex="1" parent="1">
          <mxGeometry x="40" y="260" width="160" height="60" as="geometry" />
        </mxCell>
        <mxCell id="Q_ZhAPwViul3IWRuw0_R-3" value="dApp / 參加抽獎、查詢餘額&lt;br&gt;&lt;br&gt;（React 前端）" style="rounded=1;whiteSpace=wrap;html=1;fillColor=#f5f5f5;fontColor=#333333;strokeColor=#666666;" vertex="1" parent="1">
          <mxGeometry x="320" y="260" width="160" height="60" as="geometry" />
        </mxCell>
        <mxCell id="Q_ZhAPwViul3IWRuw0_R-5" value="" style="rounded=1;whiteSpace=wrap;html=1;fillColor=#dae8fc;strokeColor=#6c8ebf;" vertex="1" parent="1">
          <mxGeometry x="280" y="380" width="200" height="120" as="geometry" />
        </mxCell>
        <mxCell id="Q_ZhAPwViul3IWRuw0_R-8" style="edgeStyle=orthogonalEdgeStyle;rounded=0;orthogonalLoop=1;jettySize=auto;html=1;exitX=1;exitY=0.5;exitDx=0;exitDy=0;entryX=0;entryY=0.5;entryDx=0;entryDy=0;startArrow=classic;startFill=1;" edge="1" parent="1" source="Q_ZhAPwViul3IWRuw0_R-7" target="Q_ZhAPwViul3IWRuw0_R-12">
          <mxGeometry relative="1" as="geometry" />
        </mxCell>
        <mxCell id="Q_ZhAPwViul3IWRuw0_R-7" value="守護進程 / 觸發抽獎&lt;br&gt;&lt;br style=&quot;font-size: 11px;&quot;&gt;（go 後端）" style="rounded=1;whiteSpace=wrap;html=1;fontSize=11;fillColor=#f5f5f5;fontColor=#333333;strokeColor=#666666;" vertex="1" parent="1">
          <mxGeometry x="40" y="420" width="160" height="60" as="geometry" />
        </mxCell>
        <mxCell id="Q_ZhAPwViul3IWRuw0_R-9" value="觸發/監控" style="text;html=1;align=center;verticalAlign=middle;whiteSpace=wrap;rounded=0;" vertex="1" parent="1">
          <mxGeometry x="210" y="430" width="60" height="20" as="geometry" />
        </mxCell>
        <mxCell id="Q_ZhAPwViul3IWRuw0_R-10" value="交易/查詢" style="text;html=1;align=center;verticalAlign=middle;whiteSpace=wrap;rounded=0;fillColor=default;" vertex="1" parent="1">
          <mxGeometry x="330" y="340" width="60" height="20" as="geometry" />
        </mxCell>
        <mxCell id="Q_ZhAPwViul3IWRuw0_R-11" value="TON 區塊鍊" style="text;html=1;align=center;verticalAlign=middle;whiteSpace=wrap;rounded=0;" vertex="1" parent="1">
          <mxGeometry x="345" y="380" width="70" height="30" as="geometry" />
        </mxCell>
        <mxCell id="Q_ZhAPwViul3IWRuw0_R-14" style="edgeStyle=orthogonalEdgeStyle;rounded=0;orthogonalLoop=1;jettySize=auto;html=1;exitX=1;exitY=0.5;exitDx=0;exitDy=0;entryX=0;entryY=0.5;entryDx=0;entryDy=0;startArrow=classic;startFill=1;" edge="1" parent="1" source="Q_ZhAPwViul3IWRuw0_R-12" target="Q_ZhAPwViul3IWRuw0_R-13">
          <mxGeometry relative="1" as="geometry" />
        </mxCell>
        <mxCell id="Q_ZhAPwViul3IWRuw0_R-12" value="抽獎&lt;br&gt;合約" style="ellipse;whiteSpace=wrap;html=1;aspect=fixed;fillColor=#f5f5f5;fontColor=#333333;strokeColor=#666666;" vertex="1" parent="1">
          <mxGeometry x="295" y="420" width="60" height="60" as="geometry" />
        </mxCell>
        <mxCell id="Q_ZhAPwViul3IWRuw0_R-13" value="NFT&lt;br&gt;合約" style="ellipse;whiteSpace=wrap;html=1;aspect=fixed;fillColor=#f5f5f5;fontColor=#333333;strokeColor=#666666;" vertex="1" parent="1">
          <mxGeometry x="405" y="420" width="60" height="60" as="geometry" />
        </mxCell>
        <mxCell id="Q_ZhAPwViul3IWRuw0_R-16" value="TonConnect" style="text;html=1;align=center;verticalAlign=middle;whiteSpace=wrap;rounded=0;" vertex="1" parent="1">
          <mxGeometry x="230" y="270" width="60" height="20" as="geometry" />
        </mxCell>
        <mxCell id="Q_ZhAPwViul3IWRuw0_R-17" value="發送" style="text;html=1;align=center;verticalAlign=middle;whiteSpace=wrap;rounded=0;" vertex="1" parent="1">
          <mxGeometry x="365" y="425" width="30" height="25" as="geometry" />
        </mxCell>
        <mxCell id="Q_ZhAPwViul3IWRuw0_R-6" style="edgeStyle=orthogonalEdgeStyle;rounded=0;orthogonalLoop=1;jettySize=auto;html=1;exitX=0.5;exitY=1;exitDx=0;exitDy=0;entryX=0.5;entryY=0;entryDx=0;entryDy=0;startArrow=classic;startFill=1;" edge="1" parent="1" source="Q_ZhAPwViul3IWRuw0_R-3" target="Q_ZhAPwViul3IWRuw0_R-12">
          <mxGeometry relative="1" as="geometry">
            <Array as="points">
              <mxPoint x="400" y="360" />
              <mxPoint x="325" y="360" />
            </Array>
          </mxGeometry>
        </mxCell>
      </root>
    </mxGraphModel>
  </diagram>
</mxfile>
